<svg id="Layer_1" data-name="Layer 1" xmlns="http://www.w3.org/2000/svg" viewBox="0 0 1864.9 1871.43"><defs><style>.cls-1,.cls-18,.cls-29{fill:#d1716e;}.cls-1,.cls-10,.cls-11,.cls-13,.cls-14,.cls-15,.cls-16,.cls-17,.cls-18,.cls-20,.cls-21,.cls-23,.cls-24,.cls-25,.cls-27,.cls-28,.cls-29,.cls-3,.cls-30,.cls-32,.cls-34,.cls-35,.cls-36,.cls-37,.cls-39,.cls-4,.cls-40,.cls-41,.cls-42,.cls-43,.cls-44,.cls-45,.cls-46,.cls-47,.cls-48,.cls-49,.cls-5,.cls-50,.cls-51,.cls-52,.cls-53,.cls-54,.cls-55,.cls-56,.cls-57,.cls-58,.cls-59,.cls-6,.cls-60,.cls-61,.cls-62,.cls-63,.cls-64,.cls-65,.cls-66,.cls-67,.cls-68,.cls-69,.cls-7,.cls-70,.cls-71,.cls-72,.cls-73,.cls-74,.cls-75,.cls-76,.cls-77,.cls-78,.cls-79,.cls-8,.cls-80,.cls-81,.cls-82,.cls-83,.cls-84,.cls-85,.cls-86,.cls-9{fill-rule:evenodd;}.cls-12,.cls-19,.cls-2,.cls-31,.cls-33,.cls-38{fill:none;}.cls-10,.cls-11,.cls-12,.cls-15,.cls-2,.cls-20,.cls-21,.cls-28,.cls-29,.cls-3,.cls-30,.cls-31,.cls-33,.cls-34,.cls-35,.cls-36,.cls-39,.cls-4,.cls-41,.cls-42,.cls-43,.cls-44,.cls-45,.cls-46,.cls-47,.cls-48,.cls-49,.cls-5,.cls-50,.cls-51,.cls-52,.cls-53,.cls-54,.cls-55,.cls-56,.cls-57,.cls-58,.cls-61,.cls-62,.cls-63,.cls-64,.cls-65,.cls-66,.cls-67,.cls-68,.cls-69,.cls-7,.cls-70,.cls-71,.cls-72,.cls-73,.cls-74,.cls-75,.cls-76,.cls-77,.cls-78,.cls-79,.cls-8,.cls-80,.cls-81,.cls-82,.cls-83,.cls-84,.cls-85,.cls-86,.cls-9{stroke:#59233d;}.cls-10,.cls-11,.cls-12,.cls-14,.cls-15,.cls-16,.cls-17,.cls-18,.cls-19,.cls-2,.cls-20,.cls-21,.cls-25,.cls-28,.cls-29,.cls-3,.cls-30,.cls-32,.cls-33,.cls-34,.cls-35,.cls-36,.cls-37,.cls-38,.cls-39,.cls-4,.cls-41,.cls-42,.cls-43,.cls-44,.cls-45,.cls-46,.cls-47,.cls-48,.cls-49,.cls-5,.cls-50,.cls-51,.cls-52,.cls-53,.cls-54,.cls-55,.cls-56,.cls-57,.cls-58,.cls-6,.cls-65,.cls-66,.cls-67,.cls-68,.cls-69,.cls-7,.cls-70,.cls-71,.cls-72,.cls-73,.cls-74,.cls-75,.cls-76,.cls-77,.cls-78,.cls-79,.cls-8,.cls-80,.cls-81,.cls-82,.cls-83,.cls-84,.cls-85,.cls-86,.cls-9{stroke-linecap:round;}.cls-10,.cls-11,.cls-12,.cls-13,.cls-14,.cls-15,.cls-16,.cls-17,.cls-18,.cls-19,.cls-2,.cls-20,.cls-21,.cls-25,.cls-28,.cls-29,.cls-3,.cls-30,.cls-31,.cls-32,.cls-33,.cls-34,.cls-35,.cls-36,.cls-37,.cls-38,.cls-39,.cls-4,.cls-41,.cls-42,.cls-43,.cls-44,.cls-45,.cls-46,.cls-47,.cls-48,.cls-49,.cls-5,.cls-50,.cls-51,.cls-52,.cls-53,.cls-54,.cls-55,.cls-56,.cls-57,.cls-58,.cls-59,.cls-6,.cls-60,.cls-61,.cls-62,.cls-63,.cls-64,.cls-65,.cls-66,.cls-67,.cls-68,.cls-69,.cls-7,.cls-70,.cls-71,.cls-72,.cls-73,.cls-74,.cls-75,.cls-76,.cls-77,.cls-78,.cls-79,.cls-8,.cls-80,.cls-81,.cls-82,.cls-83,.cls-84,.cls-85,.cls-86,.cls-9{stroke-miterlimit:22.93;}.cls-2{stroke-width:32.9px;}.cls-3{fill:#bd863e;}.cls-3,.cls-4,.cls-46{stroke-width:10.28px;}.cls-4{fill:#debd62;}.cls-5{fill:#805128;stroke-width:6.21px;}.cls-41,.cls-58,.cls-6,.cls-7,.cls-9{fill:#e4f2f2;}.cls-13,.cls-14,.cls-16,.cls-17,.cls-18,.cls-19,.cls-25,.cls-32,.cls-37,.cls-38,.cls-6{stroke:#211915;}.cls-12,.cls-15,.cls-35,.cls-6,.cls-7,.cls-70,.cls-71,.cls-72,.cls-75{stroke-width:8.23px;}.cls-10,.cls-11,.cls-57,.cls-59,.cls-60,.cls-61,.cls-62,.cls-63,.cls-64,.cls-8{fill:#a8b9b9;}.cls-8{stroke-width:4.11px;}.cls-9{stroke-width:12.34px;}.cls-10{stroke-width:4.11px;}.cls-11{stroke-width:4.11px;}.cls-13{fill:#6c8a8a;stroke-width:1.17px;}.cls-14,.cls-21,.cls-24,.cls-25,.cls-30,.cls-37,.cls-55{fill:#fff;}.cls-14,.cls-32,.cls-42{stroke-width:3.74px;}.cls-15{fill:#827a55;}.cls-16,.cls-20,.cls-36,.cls-40,.cls-56{fill:#fdc8b6;}.cls-16{stroke-width:6.17px;}.cls-17,.cls-39{fill:#f4a99a;}.cls-17,.cls-29,.cls-30,.cls-33,.cls-39,.cls-52,.cls-53,.cls-54{stroke-width:4.11px;}.cls-18,.cls-38{stroke-width:1.87px;}.cls-19{stroke-width:0.29px;}.cls-20,.cls-44,.cls-45{stroke-width:8.23px;}.cls-21,.cls-37{stroke-width:2.81px;}.cls-22,.cls-27{fill:#59233d;}.cls-23,.cls-26{fill:#211915;}.cls-25{stroke-width:2.79px;}.cls-28{fill:#d38c6c;}.cls-28,.cls-34,.cls-77,.cls-78,.cls-83{stroke-width:6.17px;}.cls-31{stroke-width:1.17px;}.cls-32,.cls-34{fill:#897765;}.cls-35{fill:#b5ac83;}.cls-36{stroke-width:8.23px;}.cls-41,.cls-49{stroke-width:12.34px;}.cls-42{fill:#867a62;}.cls-43{fill:#90a8a8;stroke-width:8.23px;}.cls-44{fill:#c3dbdb;}.cls-45{fill:#e6b19f;}.cls-46,.cls-49,.cls-74{fill:#f4d06f;}.cls-47,.cls-48,.cls-52,.cls-71,.cls-73,.cls-77,.cls-84,.cls-86{fill:#d0964b;}.cls-47,.cls-66,.cls-81{stroke-width:6.17px;}.cls-48{stroke-width:10.29px;}.cls-50,.cls-72,.cls-76,.cls-78,.cls-85{fill:#ffe499;}.cls-50{stroke-width:16.45px;}.cls-51,.cls-75{fill:#e9b96d;}.cls-51{stroke-width:16.45px;}.cls-53,.cls-70{fill:#9a6232;}.cls-54,.cls-79{fill:#686871;}.cls-55{stroke-width:5.23px;}.cls-56,.cls-58{stroke-width:10.28px;}.cls-57{stroke-width:10.28px;}.cls-59,.cls-60{stroke:#000;}.cls-59,.cls-61{stroke-width:2.06px;}.cls-60{stroke-width:4.11px;}.cls-62{stroke-width:2.06px;}.cls-63{stroke-width:2.06px;}.cls-64{stroke-width:2.06px;}.cls-65,.cls-68{fill:#4d4d57;}.cls-65,.cls-67,.cls-80{stroke-width:6.17px;}.cls-66,.cls-80,.cls-82{fill:#55555c;}.cls-67,.cls-69,.cls-81,.cls-83{fill:#82878b;}.cls-68,.cls-73,.cls-74,.cls-79{stroke-width:20.56px;}.cls-69{stroke-width:6.17px;}.cls-76{stroke-width:14.39px;}.cls-82{stroke-width:8.23px;}.cls-84{stroke-width:20.66px;}.cls-85{stroke-width:8.23px;}.cls-86{stroke-width:16.45px;}</style></defs><title>dictionary-2</title><path class="cls-1" d="M793.71,381.27c402.15,0,728.15,326,728.15,728.15s-326,728.16-728.15,728.16-728.15-326-728.15-728.16,326-728.15,728.15-728.15Z" transform="translate(-65.56 -64.41)"/><path class="cls-2" d="M1108.54,1575l33.08,110.8,245.28,75.33c42.61-.24,85-.48,113.44-.54,47.05-.1,30.53-2.44,72.16,23.13l104.33,64.06c9,2.58,15.48,11.62,15.48,20.85,0,11.81-9.68,19.8-21.39,21.39-60.45,8.19-154.51,15.13-232.94,22.58-60.16,5.73-64.75-8-102.74-27.74-23.09-12-48.06-27.14-68.53-40-18.88-11.89-48.4-24.8-56.9-47.09-5.46-14.33-3.72-30.87,18.76-35l-47.32-14.3A124.55,124.55,0,0,1,1185,1779c0,63.3-47.17,114.61-105.34,114.61-44.51,0-82.58-30-98-72.51-13.15,28.66-39.25,48.19-69.29,48.19-39.75,0-72.58-34.19-77.7-78.52H771.82c0,.37,0,.75,0,1.13,0,70.42-52.47,127.51-117.2,127.51-50.5,0-93.54-34.75-110-83.46-14.93,30.77-43.42,51.57-76.11,51.57-38.76,0-71.61-29.23-83-69.66l-85.8,11.74-2.61-1.92.28-.25c-13.37.19-68,2.11-93.54,1.4-7.41-.21-12.56.78-13.26-.5a1.59,1.59,0,0,1-.15-.91h-.08l.09-.08a8.73,8.73,0,0,1,2.59-4.49l2.72-.34L483.9,1560.17l-42.28-85.45h52.31c-74.42-125-154.76-246.63-171.75-388.8h0l-.3-2.58-.05-.41c-.35-3.11-.67-6.22-1-9.35l0-.24q-.44-4.74-.77-9.51l0-.22q-.33-4.81-.58-9.64v-.17q-.24-4.83-.37-9.69v-.2c-.09-3.23-.14-6.48-.17-9.73V1034q0-4.89.05-9.81V1024q.07-5,.28-10v0c.12-3.36.3-6.72.5-10.1v-.14c.2-3.35.44-6.7.73-10.07v-.2c.29-3.37.6-6.75,1-10.15l0-.14q.54-5.11,1.2-10.28l0-.1q.66-5.21,1.46-10.44,1.65-10.89,3.59-21.41c.05-.33.11-.67.17-1q1.89-10.18,4-20c.11-.51.21-1,.32-1.54,1.41-6.4,2.91-12.67,4.47-18.86.17-.65.33-1.3.49-1.94q2.32-9.06,4.87-17.78c.23-.76.43-1.52.66-2.27q2.53-8.58,5.28-16.86c.25-.79.51-1.59.78-2.38q2.73-8.14,5.67-16l.93-2.47q2.92-7.77,6.07-15.24c.34-.82.68-1.64,1-2.46q3.13-7.4,6.46-14.52l1.12-2.4c2.22-4.7,4.5-9.33,6.84-13.85l1.21-2.31q3.53-6.75,7.22-13.22c.41-.72.84-1.43,1.24-2.15,2.5-4.3,5-8.53,7.64-12.65.41-.66.84-1.31,1.26-2q3.94-6.18,8-12.09c.41-.59.83-1.16,1.24-1.75q4.15-5.92,8.45-11.57c.39-.51.79-1,1.18-1.51,2.9-3.75,5.84-7.43,8.83-11,.36-.44.74-.85,1.09-1.28q4.36-5.15,8.85-10c.44-.47.87-1,1.32-1.42,3-3.21,6-6.31,9.07-9.34.51-.5,1-1,1.5-1.51,3-3,6.13-5.83,9.24-8.63l2-1.79c3-2.67,6.08-5.24,9.17-7.76.77-.64,1.55-1.28,2.32-1.9q4.53-3.62,9.14-7c.88-.65,1.76-1.31,2.65-1.94,3-2.17,6-4.24,9.11-6.26,1-.65,2-1.3,3-1.93,3-1.93,6-3.79,9.09-5.59l3.21-1.86q4.5-2.58,9.08-5c1.14-.59,2.29-1.18,3.44-1.75q4.51-2.28,9.08-4.36c1.21-.56,2.43-1.09,3.64-1.63q4.51-2,9.07-3.78c1.28-.51,2.56-1,3.84-1.47,3-1.14,6.06-2.24,9.11-3.25,1.29-.43,2.6-.84,3.91-1.26,3-1,6.09-1.9,9.15-2.75,1.35-.37,2.71-.71,4.07-1.06,2.78-.72,5.57-1.41,8.38-2,1.63-.37,3.26-.71,4.89-1q3.88-.79,7.79-1.47c1.86-.33,3.71-.62,5.58-.9,2.46-.37,4.92-.71,7.39-1,2-.24,4-.47,6-.66q3.58-.35,7.19-.6c2.06-.14,4.12-.26,6.2-.36,2.39-.1,4.78-.18,7.18-.22q3.08-.06,6.13,0c2.46,0,4.91.06,7.37.14,1.9.06,3.79.13,5.68.24,2.63.14,5.26.33,7.89.55l4.8.42c-131-208.71-16.17-533.24,313-519.48a397.11,397.11,0,0,1,95.85,15.56,99.3,99.3,0,0,1,12.83-15.9c33.17-33.91,94.42-19.32,145,19.85,59.93,46.45,104.83,127.44,70.16,203.14a387.52,387.52,0,0,1,27.29,106.26c16.18-41.32,45.28-71.6,79.86-80.58h0l302.17-99.6v0a123.76,123.76,0,0,1,40.62-6.89C1839.49,242,1914,344.62,1914,471.16S1839.49,700.3,1747.56,700.3a122.5,122.5,0,0,1-14.25-.85h0l-309-37.2h0c-39.39-.88-74-29-94.2-71.36l-16-1.43c35.93,29.15,57.66,90.61,32.58,152.73-22.91,56.75-67.9,90.52-115.14,104.92,17,37.84,30.59,80.21,39.85,127,.61,3.06,1.18,6.13,1.71,9.19l0,.19c.52,3,1,6.06,1.48,9.09l0,.19c.46,3,.88,6.07,1.27,9.1l0,.16c.38,3,.74,6.06,1.06,9.1l0,.27c.31,3,.6,6,.85,8.94l0,.38c.25,2.94.46,5.88.65,8.83l0,.48q.27,4.38.47,8.76l0,.7q.18,4.24.27,8.49l0,.8c.06,2.8.09,5.59.11,8.39v.89c0,2.8,0,5.59-.06,8.39l0,1q-.06,4.1-.21,8.19l0,1.14c-.1,2.68-.23,5.36-.37,8-7.07,133.17-66.67,265.05-121.55,389.93h37.45l-46.21,100.3h-39.93ZM1319,1801c20,.12,163.45-6.24,203.8-4.46,1,0,59.41,37.1,64.77,40.06,15.27,10.51,37.25,17.19.54,18.87-36.32,1.65-109.94,10.11-156.46,11.84-8.2.31-28.35-5.35-33.78-8.65-22.67-13.75-58.21-32.14-80.35-47.44-14-9.7-19.52-10.34,1.48-10.22Zm-690-1182.71q3.06-.06,6.13,0" transform="translate(-65.56 -64.41)"/><path class="cls-3" d="M1124.66,1549.41H830.15C727.73,1360.9,581.54,1190.35,616.33,960.29c72.61-480.12,566-440.73,655.48,11.78,39.15,198-72.27,396.7-147.15,577.34Z" transform="translate(-65.56 -64.41)"/><path class="cls-4" d="M614.35,1083.9a457.52,457.52,0,0,1,2-123.61c72.61-480.12,566-440.73,655.48,11.78,7.38,37.3,9.4,74.62,7.35,111.84H614.35Z" transform="translate(-65.56 -64.41)"/><path class="cls-5" d="M1074.82,1549.41H812.53c-91.22-179.21-221.42-341.34-190.44-560,64.67-456.43,504.11-419,583.79,11.2,34.86,188.27-64.37,377.12-131.06,548.84Z" transform="translate(-65.56 -64.41)"/><path class="cls-6" d="M1029.63,1174.62c-9.43,42.37-25.66,77.91-33.75,81.26-9.64,4-22.59,3.46-36.22,3.43-13.93,0-26.33.4-36.08-3.79-10.56-4.53-26.64-53.64-29.48-105.09-3.14-56.93,46.62-323.58,62.13-351.06,14.61-25.91,41.59-43.3,72.46-43.3,123,0,158.7,353,141.32,424.87-9.56,39.53-23.59,71.2-30.92,74.48-9.63,4.32-15.6,4.25-29.23,4.22-13.93,0-24.42,1-36.1-.09-9.18-.83-27.2-42.27-33.16-83.65-3.58-24.81-5.1-27.67-11-1.28Z" transform="translate(-65.56 -64.41)"/><path class="cls-7" d="M1029.63,1174.62c-6.43,28.88-16,54.57-24,69.08,1.43.4,2.44,1.33,2.44,2.41s-1.12,2.11-2.68,2.48c2.85.8,4.85,2.64,4.85,4.79,0,2.88-3.59,5.21-8,5.21-14.1,0-27.76.76-42.53.73-13.93,0-26.33.4-36.08-3.79-10.56-4.53-26.64-53.64-29.48-105.09-3.14-56.93,42.32-321,57.83-348.48,14.62-25.91,41.59-43.29,72.46-43.29,32.68,0,58.61,20.77,74.9,47.94,26.44,44.12,58.7,150,72.75,243.66,8.09,53.83,4.46,188.39-33,205.17-9.63,4.32-15.6,4.25-29.23,4.21-13.79,0-28,.12-41.61.12-4.43,0-8-2.33-8-5.2a4.12,4.12,0,0,1,1.51-3,2,2,0,0,1-.64-1.41,2.66,2.66,0,0,1,2-2.24c-8.67-15.36-18.38-43.67-22.45-72-3.58-24.83-5.1-27.69-11-1.3Z" transform="translate(-65.56 -64.41)"/><path class="cls-8" d="M1016.85,759q3.72-.35,7.53-.35A74.63,74.63,0,0,1,1053,764.3c49.35,86,62.6,184.78,66.33,262.26,1.25,25.92-.88,45.26-7.7,70.69-9.09,33.92-37.68,37.92-30.82-1.47,4.43-25.42,7.66-50.28,8-69.92,1.51-99.13-21.9-207.21-71.87-266.86Z" transform="translate(-65.56 -64.41)"/><path class="cls-9" d="M952.1,799.35c13-27,42.1-43,72.87-43.28,32.59-.33,60,18,77.24,46.29,36.85,60.58,69,167.12,74.6,222.47a13.87,13.87,0,0,1-6.88,13.33c-29.15,3.62-209.93,5.27-257.83-1.15-14-.76-20.45-10.77-21.15-23.21-.08-1,57.95-207.84,61.15-214.45Z" transform="translate(-65.56 -64.41)"/><path class="cls-8" d="M1014.9,756.74a88.68,88.68,0,0,1,10.07-.67,82,82,0,0,1,25.34,3.69c54.62,92.23,65.78,194.11,68.67,274.74-9.49.24-19.84.42-30.69.56-2.4-104.29-19.69-216.17-73.39-278.32Z" transform="translate(-65.56 -64.41)"/><path class="cls-10" d="M980.37,1261.31l-90.7.66a6.89,6.89,0,0,1-.9-3.34c0-20,67.86-21.15,91.6,2.68Z" transform="translate(-65.56 -64.41)"/><path class="cls-11" d="M1090.37,1262l82,0a6.15,6.15,0,0,0,.82-3c0-23-61.74-16-82.84,3Z" transform="translate(-65.56 -64.41)"/><path class="cls-12" d="M1033.36,1160.06s1-3.57,2.82-3.9,20.08,4.41,40.16-.82,23-11.26,23-11.26" transform="translate(-65.56 -64.41)"/><path class="cls-13" d="M1057.6,175.39c141,0,255.37,134,255.37,299.33S1198.64,774.06,1057.6,774.06,802.23,640,802.23,474.72,916.57,175.39,1057.6,175.39Z" transform="translate(-65.56 -64.41)"/><path class="cls-14" d="M800.38,634.79s31.45,13,38.87,33.15,24.74-2.47,54,5.36,33.39,29.27,33.39,29.27-16.08-51.12-33.8-59.36S857,619.3,848.32,623.43s-47.94,11.36-47.94,11.36Z" transform="translate(-65.56 -64.41)"/><path class="cls-15" d="M1129,278.61a562,562,0,0,1,90.82,36.68c47.32,24.24,79.37,125.88,28.25,152.09s-27.89,60.72-34.87,89.1S1177.38,599.18,1158,596,1129,278.61,1129,278.61Z" transform="translate(-65.56 -64.41)"/><path class="cls-16" d="M1238.05,521.52c31.18,8.39,40,74.5,4.9,101.46-12.44,9.56-27,12.2-40.73,11.62-113.2-4.75-21.07-128.41,35.83-113.08Z" transform="translate(-65.56 -64.41)"/><path class="cls-17" d="M1225.85,543.54c18.9,5.09,24.25,45.17,3,61.52-7.5,5.75-16.28,7.37-24.52,7.05,2.38-16.48-4.17-34-16.23-37.22a26.76,26.76,0,0,0-12.56-.08c9.2-18.54,32.59-36.06,50.34-31.27Z" transform="translate(-65.56 -64.41)"/><path class="cls-18" d="M1204.7,608.2c.91-15.24-5.51-30.32-16.62-33.32a26.56,26.56,0,0,0-12.39-.11l-.13-.07c7.19-14.39,22.92-28.14,37.89-31.29,16.07,8.67,19.52,44.83-.42,60.15a32.64,32.64,0,0,1-8.33,4.64Z" transform="translate(-65.56 -64.41)"/><path class="cls-19" d="M1203.18,593.15c-2.5-9.06-7.78-16.28-15.11-18.26a26.69,26.69,0,0,0-12.39-.11l-.12-.07a65.69,65.69,0,0,1,24-25.61c8.55,9.9,10.81,29.41,3.59,44Z" transform="translate(-65.56 -64.41)"/><path class="cls-20" d="M1018.47,306.88C768.17,296.88,788.34,549.72,887.6,704c51.28,79.73,234.95,107.66,298,19.15,50.56-71,55.08-407.42-167.11-416.31Z" transform="translate(-65.56 -64.41)"/><path class="cls-21" d="M1016.33,482.5a55.74,55.74,0,1,1-55.74,55.74,55.73,55.73,0,0,1,55.74-55.74Z" transform="translate(-65.56 -64.41)"/><path class="cls-22" d="M1016.33,478.37a59.69,59.69,0,0,1,42.34,17.54A58.11,58.11,0,0,1,1072.43,517c1.18,3.21,0,5.63-1.16,5.93-1.53.39-3.54-2.23-5.1-5.9a54.15,54.15,0,0,0-98.31-2.91c-2.91,5.85-5.22,9.81-6.62,9.5s-1.93-4.91,1-11.14a59.92,59.92,0,0,1,54.05-34.14Zm52,89.57a59.89,59.89,0,0,1-103.72.43c-1.53-2.62-.56-4.73.56-5,1.66-.4,4.33,2.11,5.61,4.08a54.13,54.13,0,0,0,83.83,9,61.32,61.32,0,0,0,7.64-9.76c.82-1.28,3.34-3.34,5-3,1.15.24,2.33,1.9,1,4.18Z" transform="translate(-65.56 -64.41)"/><path class="cls-23" d="M1037,509.71a28.53,28.53,0,1,1-28.53,28.53A28.53,28.53,0,0,1,1037,509.71Z" transform="translate(-65.56 -64.41)"/><path class="cls-24" d="M1019.55,513.06A10.59,10.59,0,1,1,1009,523.65a10.59,10.59,0,0,1,10.59-10.59Z" transform="translate(-65.56 -64.41)"/><path class="cls-25" d="M1155.73,482.5c21.34,0,40.47,24.95,42.72,55.74S1185.24,594,1163.9,594s-40.46-25-42.72-55.74,13.21-55.74,34.55-55.74Z" transform="translate(-65.56 -64.41)"/><path class="cls-23" d="M1149.76,509.71a28.53,28.53,0,1,1-28.53,28.53,28.53,28.53,0,0,1,28.53-28.53Z" transform="translate(-65.56 -64.41)"/><path class="cls-24" d="M1132.32,513.06a10.59,10.59,0,1,1-10.59,10.59,10.59,10.59,0,0,1,10.59-10.59Z" transform="translate(-65.56 -64.41)"/><path class="cls-26" d="M1199.24,564.25a54.23,54.23,0,0,1-5.55,12.57c-6.57,10.78-16.45,17.46-28.13,17.46s-22.91-6.68-31.65-17.46a70.84,70.84,0,0,1-7.87-12.15c-1.35-2.6-.87-4.71-.1-5,1.13-.4,3.27,2.1,4.37,4.07a63.55,63.55,0,0,0,6.06,9c7.9,9.75,18.07,15.79,28.62,15.79s19.5-6,25.44-15.79a54.87,54.87,0,0,0,4.41-9.72c.45-1.27,2-3.32,3.27-3,.82.23,1.82,1.89,1.13,4.16Z" transform="translate(-65.56 -64.41)"/><path class="cls-22" d="M1158.1,476.27c11.51,0,21.93,6.83,29.47,17.86a66.3,66.3,0,0,1,9.58,21.52c.82,3.27,0,5.73-.81,6-1.07.4-2.46-2.26-3.56-6a61,61,0,0,0-8-17.41c-6.82-10-16.24-16.14-26.65-16.14s-19.82,6.16-26.65,16.14a59.48,59.48,0,0,0-7.1,14.45c-2,6-3.63,10-4.62,9.67s-1.34-5,.73-11.33a66.42,66.42,0,0,1,8.17-16.92c7.55-11,18-17.86,29.48-17.86Z" transform="translate(-65.56 -64.41)"/><path class="cls-27" d="M1019.85,407.35A13.65,13.65,0,0,1,1033.5,421c0,16.35-53.55,27.16-53.55,9.27,0-8.25,30.48-22.92,39.9-22.92Z" transform="translate(-65.56 -64.41)"/><path class="cls-27" d="M1115.9,385.56a13.64,13.64,0,0,0-13.65,13.65c0,16.35,53.54,27.16,53.54,9.27,0-8.25-30.48-22.92-39.89-22.92Z" transform="translate(-65.56 -64.41)"/><path class="cls-28" d="M926.34,551.79c13.23,40.91,32.47,78.29,69.15,98,58.39,31.47,143.16,24.31,183.62-11.05-10.62,110.71-153.5,133.35-212.06,66.6-32.53-37.07-58.77-102.81-40.71-153.59Z" transform="translate(-65.56 -64.41)"/><path class="cls-29" d="M1008.34,730.44a105.8,105.8,0,0,1-39.8-27.86c-14.18-16.17-27.15-37.78-35.8-61.22,31,1.48,63.35,29.45,73.11,63.73a66.76,66.76,0,0,1,2.49,25.35Z" transform="translate(-65.56 -64.41)"/><path class="cls-30" d="M937.83,582.18c12.69,28.45,30.34,52.94,57.66,67.66,49.83,26.85,118.88,25.57,163.19,2.64-6.28,44.26-53.54,51.55-94.11,51.55-72.07,0-130.49-44-130.49-98.35a75.41,75.41,0,0,1,3.75-23.5Z" transform="translate(-65.56 -64.41)"/><path class="cls-29" d="M1121.06,580.49c22.56,0,40.85,12.07,40.85,27s-18.29,27-40.85,27c-19.44,0-35.7-9-39.82-21a9.92,9.92,0,0,1-3.91.79c-4.52,0-8.19-2.89-8.19-6.47s3.67-6.48,8.19-6.48a9.89,9.89,0,0,1,3.74.72c3.82-12.26,20.28-21.49,40-21.49Z" transform="translate(-65.56 -64.41)"/><path class="cls-31" d="M1076.89,609.76c3.12,0,5.66.79,5.66,1.77s-2.54,1.77-5.66,1.77-5.66-.79-5.66-1.77,2.53-1.77,5.66-1.77Z" transform="translate(-65.56 -64.41)"/><path class="cls-32" d="M812.43,306.44c-10.37-3.77-43.37-66,41.5-125.41s201.84-32.51,263.81,24,12.81,136.82-22,157-76.67-31.58-101.32-12.18l-24.65,19.4s-20.6,38.12-55.49,27.74-101.84-90.5-101.84-90.5Z" transform="translate(-65.56 -64.41)"/><path class="cls-33" d="M913.53,549.53c3.09-4.38,15-11.36,28.24-.94" transform="translate(-65.56 -64.41)"/><path class="cls-34" d="M900.63,540.51s-14.53,33.11-5.41,54S908.09,617,908.09,617s-33.59,6.06-45.36-10.27-19.82-43.06-19.82-43.06,41.79-23.46,50.34-21.87,7.38-1.33,7.38-1.33Z" transform="translate(-65.56 -64.41)"/><path class="cls-34" d="M928.13,485.31s-42,14.37-30.24,39.49,1.22,21.51-27.43,31.36S765.83,580.77,749.1,569.47s-48-98.41-29.16-119.25,74.38-39.08,118.09-16.5,90.1,51.59,90.1,51.59Z" transform="translate(-65.56 -64.41)"/><path class="cls-35" d="M969.75,369.21c-20.82,21.44-30.69,39.51-29.21,66.65,6.19,113.4-81.24,7.44-140.32-.35-118.92-15.68-50.18,133.07-47,135.27s-31.08-4.53-61.58-99.09C629.9,280.39,907.9,152.51,939.45,333.29c7.58,43.45,30.3,35.92,30.3,35.92Z" transform="translate(-65.56 -64.41)"/><path class="cls-36" d="M780.29,529.05c-31.17,8.4-40,74.5-4.89,101.46,12.44,9.55,27.05,12.2,40.71,11.63,113.22-4.76,21.09-128.41-35.82-113.09Z" transform="translate(-65.56 -64.41)"/><path class="cls-37" d="M792.5,551.06c-18.9,5.1-24.24,45.17-3,61.52,7.49,5.75,16.27,7.37,24.51,7.06-2.37-16.48,4.17-34,16.22-37.22a26.71,26.71,0,0,1,12.58-.09c-9.21-18.52-32.6-36-50.35-31.27Z" transform="translate(-65.56 -64.41)"/><path class="cls-38" d="M813.65,615.73c-.92-15.24,5.51-30.32,16.62-33.31a26.43,26.43,0,0,1,12.39-.12l.13-.07c-7.18-14.39-22.91-28.14-37.89-31.29-16.07,8.67-19.52,44.84.43,60.15a32.12,32.12,0,0,0,8.32,4.64Z" transform="translate(-65.56 -64.41)"/><path class="cls-39" d="M815.16,600.67c2.5-9.06,7.79-16.28,15.1-18.25a26.47,26.47,0,0,1,12.4-.12l.12-.07a65.78,65.78,0,0,0-24-25.61c-8.53,9.9-10.8,29.43-3.58,44Z" transform="translate(-65.56 -64.41)"/><path class="cls-40" d="M865.25,610.81c.13.87.13,6.9,6.61,7.24,4.44,1.84-8.48,31-11,27.49s-9-20.45-9.76-22.8,14.16-11.93,14.16-11.93Z" transform="translate(-65.56 -64.41)"/><path class="cls-41" d="M971.92,98.11c335.93,14,451.05,407.29,264.06,602.7-51.83,54.15-126.38,86-219.14,87.18C467,795.06,485.89,77.8,971.92,98.11Zm115.64,106.24c274.34,0,298,498.6,12.75,563.18C807.19,833.88,678.92,318.7,966.09,223c41.09-13.7,84.21-18.62,121.47-18.62Z" transform="translate(-65.56 -64.41)"/><path class="cls-42" d="M1195.25,305.4c26.5-26,83.3,16.6,70.4,59,57.94-70.74-44.32-164.61-65-115.16-11.09,26.46-5.37,56.13-5.37,56.13Z" transform="translate(-65.56 -64.41)"/><path class="cls-35" d="M969.75,369.21c-4.75,1.18-10.25-.42-16-4.2-5.57-4.72-11.21-14-14.3-31.73-5.4-30.91-18-52.78-34.88-66.87-2.49-26.1,2.65-52.17,20.92-71.5,56.13-59.41,159.5,124.31,185.46,83.86,31.39-48.92-105.63-104.07-30.34-181,33.17-33.91,94.42-19.32,145,19.86,71.7,55.56,121.91,160.57,40.07,246.81,43.88-138.08-94.36-147.26-56.88-61.3,20.52,47.07,30.78,115.88-5.43,112.87s-77.26-64-96.57-47.08-18.12,97.78-50.7,63.37-40.44-57.33-61-62.16-25.36-.92-25.36-.92Z" transform="translate(-65.56 -64.41)"/><path class="cls-24" d="M1048.74,542.67a7.09,7.09,0,1,1-7.09,7.09,7.1,7.1,0,0,1,7.09-7.09Z" transform="translate(-65.56 -64.41)"/><path class="cls-24" d="M1162.08,545.2a7.08,7.08,0,1,1-7.09,7.08,7.08,7.08,0,0,1,7.09-7.08Z" transform="translate(-65.56 -64.41)"/><path class="cls-43" d="M1344.78,740.12C1292,870.88,1122,879.69,1077.37,810.47c-13.7-21.23-5.4-43.77,17.53-50.89h0s43.17-10.05,65.22-36.35c45.74-47.62,17.93-75.84,47.65-117.86,67.32-95.14,183.87,18.69,137,134.75Z" transform="translate(-65.56 -64.41)"/><path class="cls-44" d="M1344.78,740.12C1292,870.88,1122,879.69,1077.37,810.47c-13.7-21.23-5.4-43.77,17.53-50.89h0s43.17-10.05,65.22-36.35c44.73-46.57,30.88-89.48,57.53-130,18,34.45,90.75,60.48,128.62,42.25,7.58,27.41,11.49,72.49-1.49,104.63Z" transform="translate(-65.56 -64.41)"/><path class="cls-45" d="M1278.3,491.61c8.69,5,5.89,17.64.75,30.4,1,.24,2,.53,3,.84,6.24-11.3,15.31-23.78,24.14-18.75s2.55,16.46-4.37,26.36c.61.29,1.21.57,1.79.86,6-9.65,13.75-18.23,21.33-13.91,8.79,5,2.8,16-4,25.76.53.53,1,1.06,1.49,1.6,5.54-8.6,12.79-16.54,19.5-12.44,11,6.72-5.86,23.74-11.81,32.57.24,11-4.07,23.74-9.43,38.87-8.32,23.43-56.17,9-71-12.36-29.81-42.89-32.16-51-31.34-59.95.63-6.92,10.51-8.94,16.79-5.94a12.59,12.59,0,0,1,3.56,2.54l7.87,7.45c8-27.22,19.09-51.15,31.71-43.9Z" transform="translate(-65.56 -64.41)"/><path class="cls-46" d="M1039,477.45c25,0,45.25,27.89,45.25,62.29S1064,602,1039,602s-45.25-27.89-45.25-62.29S1014,477.45,1039,477.45Z" transform="translate(-65.56 -64.41)"/><path class="cls-47" d="M1046.36,502.75c14.84,0,26.86,16.56,26.86,37s-12,37-26.86,37-26.87-16.56-26.87-37,12-37,26.87-37Z" transform="translate(-65.56 -64.41)"/><path class="cls-48" d="M1053.27,564.24c-10.38.76-18.79-10.21-18.79-24.5s8.41-26.48,18.79-27.24l350.91-94,19.25,178.85-370.16-33.09Z" transform="translate(-65.56 -64.41)"/><path class="cls-49" d="M1422.4,660.19c-62.61-1.41-113.06-71.71-113.06-158.23,0-77.33,40.29-141.7,93.54-155.52h0l302.17-99.59h0a123.92,123.92,0,0,1,40.61-6.89c91.93,0,166.45,102.59,166.45,229.14s-74.52,229.13-166.45,229.13a124.74,124.74,0,0,1-14.25-.84v0l-309-37.2v0Z" transform="translate(-65.56 -64.41)"/><path class="cls-50" d="M1745.68,240c91.93,0,166.45,102.59,166.45,229.14s-74.52,229.13-166.45,229.13S1579.24,595.64,1579.24,469.1,1653.75,240,1745.68,240Z" transform="translate(-65.56 -64.41)"/><path class="cls-51" d="M1765.67,308c64.61,0,117,72.12,117,161.08s-52.38,161.07-117,161.07-117-72.12-117-161.07S1701,308,1765.67,308Z" transform="translate(-65.56 -64.41)"/><path class="cls-52" d="M1735.69,624.83c-50.1-18.22-87-81-87-155.73s36.94-137.51,87-155.74c50.1,18.23,87,81,87,155.74s-36.94,137.51-87,155.73Z" transform="translate(-65.56 -64.41)"/><path class="cls-53" d="M1717.82,616.13c-40.76-25.18-69.17-81.54-69.17-147s28.41-121.85,69.17-147c48.54,9,86.12,71.39,86.12,147s-37.58,138-86.12,147Z" transform="translate(-65.56 -64.41)"/><path class="cls-54" d="M1705,606.85c-33.77-28.25-56.34-79.37-56.34-137.74,0-53.26,18.79-100.48,47.73-129.8,35.54,22.29,60.55,75.16,60.55,136.85,0,56.57-21,105.72-51.94,130.69Z" transform="translate(-65.56 -64.41)"/><path class="cls-55" d="M1697.23,372.57c12.36-4.22,27.63,7.81,34.11,26.85s1.72,37.88-10.64,42.08-27.62-7.82-34.1-26.85-1.73-37.87,10.63-42.08Z" transform="translate(-65.56 -64.41)"/><path class="cls-56" d="M1105.87,521.49c10,.87,12.91,13.39,13.76,27.11,1-.19,2-.37,3-.52.77-12.88,3.58-28.05,13.72-27.31,10.3.76,9.39,13.76,7.4,25.67.68,0,1.34,0,2,0,1.25-11.3,4.56-22.37,13.25-21.74,10.1.75,9.42,13.24,7.53,24.95.7.26,1.37.52,2,.81,1.3-10.16,4.42-20.44,12.24-19.63,12.83,1.32,5,23.95,3.38,34.47,7.65,15.19,7.27,38.67,11.58,67.27L1111.31,638c-5.09-12.41-34.82-119.1-5.44-116.55Z" transform="translate(-65.56 -64.41)"/><path class="cls-57" d="M1224,746.05c-52.8,130.76-222.76,139.57-267.42,70.35-13.69-21.24-5.4-43.78,17.54-50.89h0s43.17-10.06,65.22-36.35c45.75-47.61,17.94-75.84,47.66-117.85,67.31-95.14,183.86,18.68,137,134.74Z" transform="translate(-65.56 -64.41)"/><path class="cls-58" d="M1224,746.05c-52.8,130.76-222.76,139.57-267.42,70.35-13.69-21.24-5.4-43.78,17.54-50.89h0s43.17-10.06,65.22-36.35c44.74-46.57,19.14-74.59,45.8-115.1,32-36.25,127.63-14.22,144.69,40.48,7.58,27.41,7.14,59.37-5.83,91.51Z" transform="translate(-65.56 -64.41)"/><path class="cls-59" d="M700.64,400.91c9.8,0,17.76,11.67,17.76,26.06S710.45,453,700.64,453,682.88,441.36,682.88,427s8-26.06,17.76-26.06Z" transform="translate(-65.56 -64.41)"/><path class="cls-59" d="M652.48,329.74c9.51,2.42,14.33,15.69,10.76,29.64s-14.15,23.29-23.65,20.87-14.33-15.7-10.76-29.65,14.15-23.29,23.65-20.86Z" transform="translate(-65.56 -64.41)"/><path class="cls-59" d="M731.9,300c9.51,2.42,14.32,15.69,10.76,29.64S728.51,352.88,719,350.46s-14.33-15.7-10.76-29.65S722.4,297.53,731.9,300Z" transform="translate(-65.56 -64.41)"/><path class="cls-59" d="M781.26,228.93c8.08,5.57,8,19.69-.17,31.54s-21.34,16.95-29.41,11.38-8-19.69.17-31.54,21.34-16.94,29.41-11.38Z" transform="translate(-65.56 -64.41)"/><path class="cls-59" d="M750.34,179.88c7.55,6.25,6.25,20.31-2.93,31.4s-22.74,15-30.3,8.77-6.25-20.31,2.92-31.41,22.74-15,30.31-8.76Z" transform="translate(-65.56 -64.41)"/><path class="cls-59" d="M832.77,265.26c7.56,6.25,6.25,20.3-2.93,31.4s-22.74,15-30.3,8.76-6.25-20.3,2.92-31.4,22.75-15,30.31-8.76Z" transform="translate(-65.56 -64.41)"/><path class="cls-59" d="M690.68,244.25c8.63,4.67,10.07,18.72,3.22,31.38s-19.4,19.13-28,14.46-10.06-18.72-3.21-31.38,19.39-19.13,28-14.46Z" transform="translate(-65.56 -64.41)"/><path class="cls-59" d="M633,423.4c9.69-1.51,19.35,8.78,21.58,23s-3.83,27-13.52,28.5-19.35-8.78-21.57-23,3.83-27,13.51-28.5Z" transform="translate(-65.56 -64.41)"/><path class="cls-59" d="M770.47,361.26c9.8,0,17.76,11.67,17.76,26.06s-8,26.06-17.76,26.06-17.76-11.67-17.76-26.06,7.95-26.06,17.76-26.06Z" transform="translate(-65.56 -64.41)"/><path class="cls-59" d="M884.17,189.52c6.34,7.48,2.57,21.09-8.41,30.39s-25,10.77-31.37,3.29-2.57-21.1,8.41-30.4,25-10.77,31.37-3.28Z" transform="translate(-65.56 -64.41)"/><path class="cls-59" d="M917,124.25c1.63,9.68-8.55,19.46-22.74,21.85s-27-3.51-28.65-13.18,8.55-19.45,22.75-21.84,27,3.5,28.64,13.17Z" transform="translate(-65.56 -64.41)"/><path class="cls-59" d="M966.45,156.07c.67,9.79-10.43,18.51-24.79,19.5s-26.54-6.16-27.22-15.95,10.43-18.51,24.8-19.49,26.54,6.16,27.21,15.94Z" transform="translate(-65.56 -64.41)"/><path class="cls-59" d="M829.46,143.27c6.84,7,4,20.87-6.29,30.91s-24.22,12.48-31.06,5.46-4-20.87,6.28-30.91,24.22-12.49,31.07-5.46Z" transform="translate(-65.56 -64.41)"/><path class="cls-59" d="M1031.5,134.21c-1.37,9.71-14,16-28.28,14s-24.71-11.5-23.35-21.21,14-16,28.27-14,24.72,11.5,23.36,21.21Z" transform="translate(-65.56 -64.41)"/><path class="cls-59" d="M1051.85,180.88c-.46,9.79-12.49,17.19-26.86,16.52s-25.66-9.16-25.2-19,12.48-17.2,26.87-16.52,25.65,9.16,25.19,19Z" transform="translate(-65.56 -64.41)"/><path class="cls-59" d="M879.86,732.67c5.46-8.14,19.58-8.24,31.54-.22s17.21,21.12,11.75,29.26-19.59,8.25-31.54.23-17.21-21.12-11.75-29.27Z" transform="translate(-65.56 -64.41)"/><path class="cls-60" d="M735.3,658.82c7.3-6.54,21-3.14,30.61,7.58s11.46,24.72,4.15,31.26-21,3.15-30.61-7.57S728,665.37,735.3,658.82Z" transform="translate(-65.56 -64.41)"/><path class="cls-59" d="M743.54,571.63c8.38-5.11,21.25.72,28.74,13s6.78,26.39-1.59,31.5-21.24-.71-28.74-13-6.78-26.4,1.59-31.5Z" transform="translate(-65.56 -64.41)"/><path class="cls-59" d="M709.17,474.08c9.12-3.6,20.81,4.33,26.09,17.72s2.18,27.16-6.94,30.77-20.81-4.33-26.09-17.72-2.18-27.16,6.94-30.77Z" transform="translate(-65.56 -64.41)"/><path class="cls-59" d="M656.89,510.34c9.41-2.8,20.35,6.12,24.45,19.92s-.2,27.25-9.6,30-20.35-6.12-24.44-19.92.19-27.24,9.59-30Z" transform="translate(-65.56 -64.41)"/><path class="cls-59" d="M769.34,501.37c9.4-2.79,20.35,6.12,24.44,19.92s-.2,27.25-9.59,30.05-20.35-6.13-24.45-19.93.2-27.25,9.6-30Z" transform="translate(-65.56 -64.41)"/><path class="cls-59" d="M686.4,593.11c8.68-4.56,21.15,2.07,27.84,14.82s5.08,26.76-3.6,31.33-21.15-2.08-27.84-14.81-5.09-26.78,3.6-31.34Z" transform="translate(-65.56 -64.41)"/><path class="cls-60" d="M805,700c4.14-8.89,18.08-11.18,31.12-5.11s20.28,18.22,16.13,27.1-18.07,11.17-31.12,5.11S800.9,708.85,805,700Z" transform="translate(-65.56 -64.41)"/><path class="cls-59" d="M797.51,611c8.11-5.52,21.25-.35,29.35,11.54s8.1,26,0,31.54-21.25.36-29.36-11.55-8.1-26,0-31.53Z" transform="translate(-65.56 -64.41)"/><path class="cls-61" d="M1153.18,741.71c-9.31-3.1-13.16-16.68-8.61-30.34s15.79-22.21,25.09-19.11,13.16,16.69,8.6,30.34-15.78,22.21-25.08,19.11Z" transform="translate(-65.56 -64.41)"/><path class="cls-61" d="M1103.74,798.38c-6.45-7.39-2.89-21,7.94-30.52s24.87-11.16,31.32-3.77,2.89,21-8,30.52-24.86,11.16-31.31,3.77Z" transform="translate(-65.56 -64.41)"/><path class="cls-61" d="M1158.26,793.2c-8.16-5.44-8.3-19.57-.31-31.54s21.08-17.27,29.24-11.82,8.3,19.56.31,31.54-21.08,17.26-29.24,11.82Z" transform="translate(-65.56 -64.41)"/><path class="cls-61" d="M1209.19,715.31c-9.81-.32-17.37-12.25-16.89-26.63s8.81-25.79,18.61-25.46,17.36,12.25,16.89,26.63-8.81,25.78-18.61,25.46Z" transform="translate(-65.56 -64.41)"/><path class="cls-61" d="M1100.68,678.33c-9.8-.39-17.28-12.37-16.71-26.75s9-25.72,18.78-25.33S1120,638.61,1119.47,653s-9,25.72-18.79,25.33Z" transform="translate(-65.56 -64.41)"/><path class="cls-61" d="M1086,734.68c-7.56-6.24-6.28-20.3,2.89-31.4s22.72-15,30.28-8.81,6.28,20.3-2.88,31.4-22.73,15-30.29,8.81Z" transform="translate(-65.56 -64.41)"/><path class="cls-61" d="M1163.64,663.36c-9.78.69-18.54-10.39-19.55-24.75s6.09-26.55,15.88-27.25,18.53,10.39,19.55,24.75-6.09,26.56-15.88,27.25Z" transform="translate(-65.56 -64.41)"/><path class="cls-61" d="M994.1,825.44c-1.79-9.65,8.24-19.6,22.39-22.22s27.08,3.06,28.87,12.71-8.23,19.59-22.39,22.21-27.08-3.07-28.87-12.7Z" transform="translate(-65.56 -64.41)"/><path class="cls-61" d="M1060.28,835.62c-2-9.59,7.74-19.79,21.82-22.77s27.15,2.38,29.18,12-7.74,19.79-21.82,22.77-27.16-2.38-29.18-12Z" transform="translate(-65.56 -64.41)"/><path class="cls-61" d="M1030.68,783.88c-5.45-8.16-.15-21.25,11.81-29.25s26.09-7.86,31.54.29.16,21.25-11.81,29.24-26.09,7.87-31.54-.28Z" transform="translate(-65.56 -64.41)"/><path class="cls-62" d="M961.78,788.65c-1.14-6.28,5.39-12.72,14.59-14.4s17.59,2,18.74,8.31-5.39,12.72-14.6,14.4-17.58-2-18.73-8.31Z" transform="translate(-65.56 -64.41)"/><path class="cls-61" d="M1284.31,783.55c-8.16-5.44-8.29-19.56-.3-31.53s21.08-17.26,29.24-11.82,8.29,19.57.3,31.53-21.08,17.27-29.24,11.82Z" transform="translate(-65.56 -64.41)"/><path class="cls-61" d="M1321.91,712.15c-9.73-1.22-16.17-13.78-14.39-28.07s11.12-24.87,20.86-23.65,16.17,13.78,14.39,28.07-11.13,24.86-20.86,23.65Z" transform="translate(-65.56 -64.41)"/><path class="cls-61" d="M1276.34,699.43c-9.8-.32-17.36-12.25-16.89-26.63s8.81-25.79,18.61-25.46S1295.43,659.59,1295,674s-8.8,25.79-18.61,25.46Z" transform="translate(-65.56 -64.41)"/><path class="cls-61" d="M1245.22,766.75c-9.3-3.11-13.16-16.69-8.61-30.35s15.79-22.2,25.1-19.11,13.15,16.69,8.6,30.35-15.78,22.21-25.09,19.11Z" transform="translate(-65.56 -64.41)"/><path class="cls-61" d="M1224.5,818.74c-6.7-7.17-3.58-21,7-30.76s24.47-12,31.17-4.78,3.57,20.95-6.95,30.76-24.48,12-31.17,4.78Z" transform="translate(-65.56 -64.41)"/><path class="cls-62" d="M1175.17,835.41c-2.79-5.74,1.77-13.7,10.18-17.8s17.5-2.77,20.29,3-1.76,13.7-10.17,17.8-17.5,2.76-20.3-3Z" transform="translate(-65.56 -64.41)"/><path class="cls-61" d="M1242.64,656.82c-5.58-.29-9.76-7.16-9.35-15.35s5.29-14.6,10.87-14.32,9.76,7.16,9.34,15.35-5.27,14.6-10.86,14.32Z" transform="translate(-65.56 -64.41)"/><path class="cls-61" d="M1033.9,872.64c9.8,0,17.76,11.67,17.76,26.06s-8,26.06-17.76,26.06-17.77-11.67-17.77-26.06,8-26.06,17.77-26.06Z" transform="translate(-65.56 -64.41)"/><path class="cls-59" d="M972.33,856.55c9.8,0,17.76,11.67,17.76,26.06s-8,26.06-17.76,26.06S954.57,897,954.57,882.61s8-26.06,17.76-26.06Z" transform="translate(-65.56 -64.41)"/><path class="cls-61" d="M996.82,932.81c9.8,0,17.76,11.67,17.76,26.06s-8,26.07-17.76,26.07-17.76-11.67-17.76-26.07,8-26.06,17.76-26.06Z" transform="translate(-65.56 -64.41)"/><path class="cls-61" d="M1049.51,973c9.69-1.49,19.34,8.83,21.53,23s-3.88,27-13.57,28.47-19.34-8.83-21.53-23,3.88-27,13.57-28.47Z" transform="translate(-65.56 -64.41)"/><path class="cls-60" d="M941.48,968.73c9.72,1.29,16.06,13.9,14.17,28.17s-11.31,24.79-21,23.5-16.06-13.91-14.17-28.18,11.32-24.78,21-23.49Z" transform="translate(-65.56 -64.41)"/><path class="cls-61" d="M1140.54,965.47c9.7-1.5,19.34,8.82,21.53,23s-3.88,27-13.57,28.46-19.33-8.82-21.53-23,3.88-27,13.57-28.47Z" transform="translate(-65.56 -64.41)"/><path class="cls-62" d="M1114.37,859.55c7.63-1.17,15.2,6.94,16.92,18.12s-3,21.2-10.67,22.38-15.19-6.93-16.92-18.11,3.06-21.21,10.67-22.39Z" transform="translate(-65.56 -64.41)"/><path class="cls-62" d="M1127.4,914.31c7.61-1.17,15.2,6.93,16.92,18.12s-3.06,21.2-10.67,22.38-15.2-6.93-16.92-18.12,3-21.21,10.67-22.38Z" transform="translate(-65.56 -64.41)"/><path class="cls-61" d="M985.05,1057.33c9.8,0,17.76,11.67,17.76,26.06s-7.95,26.06-17.76,26.06-17.76-11.67-17.76-26.06,8-26.06,17.76-26.06Z" transform="translate(-65.56 -64.41)"/><path class="cls-63" d="M1048.83,1067.21c11.43,1.69,18.69,16.68,16.19,33.47s-13.79,29-25.22,27.33-18.7-16.69-16.2-33.48,13.79-29,25.23-27.32Z" transform="translate(-65.56 -64.41)"/><path class="cls-60" d="M925.23,1119.27c9.79-.57,18.39,10.63,19.23,25s-6.44,26.48-16.23,27-18.41-10.63-19.23-25,6.44-26.49,16.23-27Z" transform="translate(-65.56 -64.41)"/><path class="cls-60" d="M930.7,1050.12c9.81,0,17.76,11.67,17.76,26.07s-8,26.06-17.76,26.06-17.76-11.66-17.76-26.06,7.95-26.07,17.76-26.07Z" transform="translate(-65.56 -64.41)"/><path class="cls-61" d="M1007.79,1126.14c9.69,1.44,15.85,14.15,13.73,28.39s-11.69,24.61-21.4,23.17-15.85-14.15-13.73-28.39,11.69-24.61,21.4-23.17Z" transform="translate(-65.56 -64.41)"/><path class="cls-61" d="M1152.87,1047.08c9.29,3.16,13.05,16.77,8.4,30.4s-15.92,22.11-25.21,19-13-16.77-8.41-30.4,15.94-22.11,25.22-19Z" transform="translate(-65.56 -64.41)"/><path class="cls-61" d="M1143.65,1104.73c9.81.26,17.43,12.15,17,26.54s-8.66,25.83-18.47,25.57-17.44-12.15-17-26.55,8.67-25.84,18.47-25.56Z" transform="translate(-65.56 -64.41)"/><path class="cls-61" d="M1155.14,1170.88c9.28,3.16,13,16.77,8.41,30.39s-15.93,22.12-25.22,19-13-16.77-8.4-30.4,15.93-22.1,25.21-18.94Z" transform="translate(-65.56 -64.41)"/><path class="cls-59" d="M964.45,1172.54c9.69,1.44,15.85,14.15,13.73,28.39s-11.69,24.61-21.4,23.17-15.85-14.14-13.73-28.39,11.69-24.61,21.4-23.17Z" transform="translate(-65.56 -64.41)"/><path class="cls-61" d="M1102.33,1155.11c9.8-.35,18.16,11,18.67,25.41s-7,26.33-16.83,26.68-18.16-11-18.67-25.42,7-26.33,16.83-26.67Z" transform="translate(-65.56 -64.41)"/><path class="cls-64" d="M1082.71,1210.84c7.41-.26,13.72,8.34,14.1,19.2s-5.31,19.88-12.72,20.15-13.71-8.34-14.1-19.2,5.31-19.89,12.72-20.15Z" transform="translate(-65.56 -64.41)"/><path class="cls-61" d="M1064.3,1171.37c5.32-.19,9.86,6,10.13,13.78s-3.81,14.28-9.13,14.47-9.85-6-10.12-13.79,3.8-14.28,9.12-14.46Z" transform="translate(-65.56 -64.41)"/><path class="cls-61" d="M1121.53,1216.2c5.2,1.1,8.09,8.2,6.47,15.83s-7.18,12.92-12.38,11.81-8.1-8.21-6.47-15.84,7.18-12.92,12.38-11.8Z" transform="translate(-65.56 -64.41)"/><path class="cls-61" d="M994.49,1221.42c4.47,2.86,4.7,10.52.5,17.09s-11.26,9.58-15.73,6.72-4.71-10.52-.5-17.1,11.25-9.58,15.73-6.71Z" transform="translate(-65.56 -64.41)"/><path class="cls-60" d="M920.66,1211.37c-5,1.72-7.07,9.11-4.55,16.49s8.65,12,13.68,10.27,7.07-9.1,4.55-16.49-8.64-12-13.68-10.27Z" transform="translate(-65.56 -64.41)"/><path class="cls-60" d="M967.5,1120.09c-5.28-.61-10.28,5.19-11.18,12.94s2.68,14.54,7.95,15.14,10.3-5.18,11.19-12.94-2.67-14.53-8-15.14Z" transform="translate(-65.56 -64.41)"/><path class="cls-65" d="M912.82,1686.05c43.3,0,78.4,40.55,78.4,90.59s-35.1,90.61-78.4,90.61-78.4-40.57-78.4-90.61,35.1-90.59,78.4-90.59Z" transform="translate(-65.56 -64.41)"/><path class="cls-66" d="M894.18,1733.5c18.54,0,33.56,17.37,33.56,38.79s-15,38.79-33.56,38.79-33.56-17.37-33.56-38.79,15-38.79,33.56-38.79Z" transform="translate(-65.56 -64.41)"/><path class="cls-67" d="M912.17,1739.55c9.36,6.88,15.57,19,15.57,32.75s-6.21,25.87-15.57,32.75a24.88,24.88,0,0,1-4.25.37c-15.83,0-28.66-14.83-28.66-33.12s12.83-33.12,28.66-33.12a24,24,0,0,1,4.25.37Z" transform="translate(-65.56 -64.41)"/><path class="cls-68" d="M1080.11,1662.34c58.17,0,105.34,51.31,105.34,114.61s-47.17,114.61-105.34,114.61S974.78,1840.25,974.78,1777s47.16-114.61,105.33-114.61Z" transform="translate(-65.56 -64.41)"/><path class="cls-66" d="M1060.79,1727.89c23.44,0,42.45,22,42.45,49.06s-19,49.07-42.45,49.07-42.46-22-42.46-49.07,19-49.06,42.46-49.06Z" transform="translate(-65.56 -64.41)"/><path class="cls-69" d="M1083.54,1735.53c11.85,8.7,19.7,24,19.7,41.43s-7.85,32.72-19.7,41.42a31.82,31.82,0,0,1-5.37.46c-20,0-36.25-18.75-36.25-41.89s16.23-41.89,36.25-41.89a30.73,30.73,0,0,1,5.37.47Z" transform="translate(-65.56 -64.41)"/><path class="cls-70" d="M298.42,1825.38l240-30.27h-3.28L801.07,1536H694.6l-266.19,259.4h-1.18c-78.08,9.9-155.69,15.52-233.77,25.42-.43,0-3.31,3.89-2.45,5.48.7,1.27,5.85.29,13.26.49,25.93.73,81.9-1.27,94.15-1.4Z" transform="translate(-65.56 -64.41)"/><path class="cls-71" d="M508.67,1536H615.14L297.25,1825.38H190.79L508.67,1536Z" transform="translate(-65.56 -64.41)"/><polygon class="cls-70" points="231.98 1761.23 234.59 1763.14 469.86 1730.97 735.8 1471.88 549.87 1471.88 231.98 1761.23"/><path class="cls-72" d="M740.45,1258.72h469.12c19.56,0,28,16,18.64,35.57l-121.48,255.12c-.09.2-.2.4-.29.61H566.2l.29-.6L688,1294.29c9.31-19.56,32.93-35.57,52.49-35.57Z" transform="translate(-65.56 -64.41)"/><path class="cls-73" d="M832.88,1549.7H538.37c-102.41-188.51-248.62-359-213.83-589.12,72.61-480.13,566-440.73,655.49,11.78,39.16,198.05-72.27,396.71-147.15,577.34Z" transform="translate(-65.56 -64.41)"/><path class="cls-74" d="M322.58,1083.9a457.91,457.91,0,0,1,2-123.61c72.61-480.12,566-440.73,655.49,11.78,7.37,37.3,9.4,74.62,7.35,111.84H322.58Z" transform="translate(-65.56 -64.41)"/><polygon class="cls-75" points="469.18 1458.06 1028.31 1458.06 1107.82 1724.32 379.69 1724.32 469.18 1458.06"/><polygon class="cls-76" points="747.87 1458.06 1028.31 1458.06 1107.82 1724.32 658.38 1724.32 747.87 1458.06"/><path class="cls-77" d="M896.43,1619.24H1029a41.09,41.09,0,0,1,41,41h0a41.09,41.09,0,0,1-41,41H896.43a41.08,41.08,0,0,1-41-41h0a41.08,41.08,0,0,1,41-41Z" transform="translate(-65.56 -64.41)"/><path class="cls-78" d="M896.43,1619.24h95.33a41.08,41.08,0,0,1,41,41h0a41.09,41.09,0,0,1-41,41H896.43a41.08,41.08,0,0,1-41-41h0a41.08,41.08,0,0,1,41-41Z" transform="translate(-65.56 -64.41)"/><path class="cls-77" d="M896.43,1619.24h12.29a41.09,41.09,0,0,1,41,41h0a41.09,41.09,0,0,1-41,41H896.43a41.08,41.08,0,0,1-41-41h0a41.08,41.08,0,0,1,41-41Z" transform="translate(-65.56 -64.41)"/><path class="cls-77" d="M881.72,1698.42a41.11,41.11,0,0,1-26.25-38.22h0A41.1,41.1,0,0,1,881.72,1622,41.1,41.1,0,0,1,908,1660.2h0a41.09,41.09,0,0,1-26.25,38.22Z" transform="translate(-65.56 -64.41)"/><path class="cls-79" d="M468.92,1683.87c48.18,0,87.23,45.14,87.23,100.81s-39,100.8-87.23,100.8-87.22-45.13-87.22-100.8,39.05-100.81,87.22-100.81Z" transform="translate(-65.56 -64.41)"/><path class="cls-80" d="M448.18,1741.52c20.63,0,37.35,19.33,37.35,43.16s-16.72,43.15-37.35,43.15-37.34-19.33-37.34-43.15,16.72-43.16,37.34-43.16Z" transform="translate(-65.56 -64.41)"/><path class="cls-81" d="M468.19,1748.24c10.42,7.65,17.33,21.11,17.33,36.43s-6.91,28.79-17.33,36.44a27.46,27.46,0,0,1-4.73.41c-17.6,0-31.87-16.5-31.87-36.85s14.27-36.84,31.87-36.84a27.37,27.37,0,0,1,4.73.41Z" transform="translate(-65.56 -64.41)"/><path class="cls-79" d="M655.05,1662.35c64.73,0,117.2,57.09,117.2,127.51s-52.47,127.51-117.2,127.51-117.19-57.09-117.19-127.51,52.46-127.51,117.19-127.51Z" transform="translate(-65.56 -64.41)"/><path class="cls-82" d="M633.55,1735.27c26.1,0,47.24,24.44,47.24,54.59s-21.15,54.59-47.24,54.59-47.23-24.44-47.23-54.59,21.14-54.59,47.23-54.59Z" transform="translate(-65.56 -64.41)"/><path class="cls-83" d="M658.87,1743.77c13.18,9.68,21.93,26.71,21.93,46.09s-8.75,36.41-21.93,46.09a34.81,34.81,0,0,1-6,.51c-22.27,0-40.33-20.86-40.33-46.61s18.06-46.61,40.33-46.61a35.84,35.84,0,0,1,6,.53Z" transform="translate(-65.56 -64.41)"/><polygon class="cls-84" points="376.48 1408.29 1129.56 1408.29 1083.35 1508.59 426.11 1508.59 376.48 1408.29"/><path class="cls-85" d="M1319.31,1788l-304.07-91.9c-17.45-5.65-58.72-11.79-58.72-36.08a25.44,25.44,0,0,1,23-24.9c8.94-.73,36.81,10.09,45.25,12.67l391.14,120.14c97.8,26.51-37.88,32.93-96.63,20.07Z" transform="translate(-65.56 -64.41)"/><path class="cls-86" d="M1241.72,1759.68c34.71.39,189-1,259-1.09,47-.1,30.52-2.44,72.15,23.13l104.34,64.07A22.06,22.06,0,0,1,1687,1852h0a21.31,21.31,0,0,1,5.75,14.59c0,11.81-9.68,19.8-21.39,21.39-60.45,8.2-154.52,15.13-233,22.59-60.15,5.73-64.73-8-102.74-27.75-21-10.87-111.35-56.57-124-84.31-7.88-17.27-6.38-39.29,30.12-38.87Zm77.69,39.31c19.95.12,163.45-6.24,203.8-4.46,1,0,59.41,37.1,64.77,40.06,15.28,10.51,37.25,17.19.54,18.87-36.32,1.65-109.94,10.11-156.45,11.85-8.2.31-28.36-5.35-33.79-8.65-22.67-13.76-58.2-32.14-80.35-47.44-14-9.71-19.52-10.35,1.48-10.23Z" transform="translate(-65.56 -64.41)"/></svg>