<svg id="Layer_1" data-name="Layer 1" xmlns="http://www.w3.org/2000/svg" viewBox="0 0 1863.33 1863.33"><defs><style>.cls-1{fill:#d1716e;}.cls-2{fill:#59233d;}.cls-3{fill:#ffe499;stroke-linecap:round;}.cls-10,.cls-3,.cls-4,.cls-7,.cls-8{stroke:#59233d;stroke-miterlimit:22.93;}.cls-10,.cls-3,.cls-7,.cls-8{stroke-width:12.85px;}.cls-4,.cls-5{fill:#e4f2f2;}.cls-4{stroke-width:5.51px;}.cls-6{fill:#f4d06f;}.cls-7{fill:#d0964b;}.cls-8{fill:#b5ac83;}.cls-9{fill:#a8b9b9;}.cls-10{fill:#6c8a8a;}</style></defs><title>dictionary-1</title><circle id="background" class="cls-1" cx="931.67" cy="931.67" r="931.67"/><path class="cls-2" d="M1422.14,535.31v31h-8.4A99.42,99.42,0,0,0,1386,635.12v20.65a99.44,99.44,0,0,0,27.74,68.84h8.4v31H762.19v1.94h726.14a128.28,128.28,0,0,1,128.14,128.13V951a128.28,128.28,0,0,1-128.14,128.14H1713.1v292.54h131.51v61.95h-16.8a198.84,198.84,0,0,0-55.48,137.67v41.3a198.84,198.84,0,0,0,55.48,137.67h16.8v62H560v70.23l-74.08-55.33-74.07,55.33v-70.23h-81.6c-96.79,0-175.53-78.74-175.53-175.52v-89.49c0-96.79,78.74-175.53,175.53-175.53h-44V1079.11h96.63v-45.23h12.27a145.15,145.15,0,0,0,40.5-100.49V903.24a145.15,145.15,0,0,0-40.5-100.5H382.86V757.52H694.07v-1.94H665a87.87,87.87,0,0,1-87.77-87.76V623.08A87.88,87.88,0,0,1,665,535.31h757.18M713.66,757.52H742.6L740,755.58H716.24l-2.58,1.94m730.5-244.23H665A109.91,109.91,0,0,0,555.17,623.08v44.74a109.22,109.22,0,0,0,23.39,67.67H360.84v89.27h24.42a122.74,122.74,0,0,1,28.34,78.48v30.15a122.73,122.73,0,0,1-28.34,78.47H360.84v45.22H264.21V1361c-76.56,27.23-131.51,100.42-131.51,186.2v89.49c0,108.93,88.62,197.55,197.55,197.55h59.57v92.14l35.21-26.3,60.89-45.48,60.9,45.48,35.21,26.3v-92.14H1866.64v-106h-29.09a176.35,176.35,0,0,1-43.19-115.65v-41.3a176.3,176.3,0,0,1,43.19-115.64h29.09v-106H1735.13V1057.08H1594.48a149.69,149.69,0,0,0,44-106.11V885.65c0-82.8-67.36-150.16-150.16-150.16h-44.17V702.58h-20.31A77,77,0,0,1,1408,655.77V635.12a77.08,77.08,0,0,1,15.82-46.81h20.31v-75Z" transform="translate(-68 -68.33)"/><g id="books"><rect class="cls-3" x="218.23" y="1010.77" width="1426.87" height="292.55"/><rect class="cls-4" x="1241.99" y="1043.82" width="320.36" height="226.46" rx="9"/><path class="cls-5" d="M1772.33,1612.57v-41.3a198.84,198.84,0,0,1,55.48-137.67H330.25c-79.5,0-144.55,65.05-144.55,144.56v27.53c0,79.5,65.05,144.55,144.55,144.55H1827.81A198.84,198.84,0,0,1,1772.33,1612.57Z" transform="translate(-68 -68.33)"/><path class="cls-6" d="M330.25,1818.62c-100.33,0-181.95-81.62-181.95-181.95v-89.49c0-100.33,81.62-182,182-182H1851V1440H330.25A107.27,107.27,0,0,0,223.1,1547.18v89.49a107.27,107.27,0,0,0,107.15,107.15H1851v74.8Z" transform="translate(-68 -68.33)"/><path class="cls-2" d="M1844.61,1371.65v61.95H330.25a113.71,113.71,0,0,0-113.58,113.58v89.49a113.7,113.7,0,0,0,113.58,113.57H1844.61v62H330.25c-96.79,0-175.53-78.74-175.53-175.52v-89.49c0-96.79,78.74-175.53,175.53-175.53H1844.61m12.85-12.84H330.25c-103.87,0-188.37,84.5-188.37,188.37v89.49c0,103.87,84.5,188.37,188.37,188.37H1857.46V1737.4H330.25a100.85,100.85,0,0,1-100.73-100.73v-89.49a100.85,100.85,0,0,1,100.73-100.73H1857.46v-87.64Z" transform="translate(-68 -68.33)"/><polygon class="cls-7" points="492 1814.08 417.93 1758.75 343.85 1814.08 343.85 1523.59 492 1523.59 492 1814.08"/><rect class="cls-2" x="492" y="1632.92" width="84.95" height="5.8"/><rect class="cls-2" x="272.34" y="1516.91" width="510.45" height="5.8"/><rect class="cls-2" x="1169.49" y="1592.32" width="510.45" height="5.8"/><rect class="cls-2" x="825.32" y="1435.7" width="288.09" height="5.8"/><path class="cls-5" d="M435.63,933.39V903.24a145.15,145.15,0,0,0-40.5-100.5h1093.2c58,0,105.53,47.48,105.53,105.52v20.1c0,58-47.49,105.52-105.53,105.52H395.13A145.15,145.15,0,0,0,435.63,933.39Z" transform="translate(-68 -68.33)"/><path class="cls-8" d="M382.86,1033.88H1488.33A83,83,0,0,0,1571.24,951V885.65a83,83,0,0,0-82.91-82.91H382.86V757.52H1488.33a128.28,128.28,0,0,1,128.14,128.13V951a128.28,128.28,0,0,1-128.14,128.14H382.86Z" transform="translate(-68 -68.33)"/><rect class="cls-2" x="1224.7" y="984.02" width="47.52" height="3.24" transform="translate(2428.92 1902.95) rotate(180)"/><rect class="cls-2" x="1109.58" y="919.13" width="285.5" height="3.24" transform="translate(2436.65 1773.18) rotate(180)"/><rect class="cls-2" x="607.79" y="961.31" width="285.5" height="3.24" transform="translate(1433.08 1857.53) rotate(180)"/><rect class="cls-2" x="924.65" y="873.71" width="161.13" height="3.24" transform="translate(1942.44 1682.34) rotate(180)"/><path class="cls-5" d="M1386,652.1V631.45a99.4,99.4,0,0,1,27.74-68.83H665a72.49,72.49,0,0,0-72.28,72.28v13.76A72.5,72.5,0,0,0,665,720.94h748.78A99.44,99.44,0,0,1,1386,652.1Z" transform="translate(-68 -68.33)"/><path class="cls-9" d="M665,758.34a94.3,94.3,0,0,1-94.19-94.19V619.41A94.29,94.29,0,0,1,665,525.22h763.6V569H665a50.43,50.43,0,0,0-50.37,50.37v44.74A50.42,50.42,0,0,0,665,714.51h763.6v43.83Z" transform="translate(-68 -68.33)"/><path class="cls-2" d="M1422.14,531.64v31H665a56.85,56.85,0,0,0-56.79,56.79v44.74A56.86,56.86,0,0,0,665,720.94h757.18v31H665a87.87,87.87,0,0,1-87.77-87.76V619.41A87.87,87.87,0,0,1,665,531.64h757.18M1435,518.8H665A100.72,100.72,0,0,0,564.35,619.41v44.74A100.72,100.72,0,0,0,665,764.76h770V708.09H665A44,44,0,0,1,621,664.15V619.41A44,44,0,0,1,665,575.47h770V518.8Z" transform="translate(-68 -68.33)"/><polygon class="cls-10" points="694.19 700.14 660.13 674.7 626.07 700.14 626.07 566.58 694.19 566.58 694.19 700.14"/><rect class="cls-2" x="724.36" y="615.45" width="38.01" height="2.6"/><rect class="cls-2" x="626.07" y="563.54" width="228.4" height="2.6"/><rect class="cls-2" x="1027.5" y="597.28" width="228.4" height="2.6"/><rect class="cls-2" x="873.5" y="527.2" width="128.91" height="2.6"/></g></svg>